<svg width="29" height="29" viewBox="0 0 29 29" fill="none" xmlns="http://www.w3.org/2000/svg">
    <path d="M14.528 8.15344C11.009 8.15344 8.21191 10.9619 8.21191 14.4951C8.21191 18.0282 11.009 20.8367 14.528 20.8367C18.047 20.8367 20.8441 18.0282 20.8441 14.4951C20.8441 10.9619 18.047 8.15344 14.528 8.15344ZM14.528 19.0248C12.0016 19.0248 10.0165 17.0317 10.0165 14.4951C10.0165 11.9584 12.0016 9.96533 14.528 9.96533C17.0544 9.96533 19.0395 11.9584 19.0395 14.4951C19.0395 17.0317 17.0544 19.0248 14.528 19.0248Z" fill="#000"/>
    <path d="M27.7908 11.5055L25.2644 10.6902L24.723 9.33124L25.9862 6.97578C26.2569 6.43221 26.1667 5.70746 25.7155 5.25448L23.55 3.08021C23.0989 2.62724 22.377 2.53665 21.8356 2.80843L19.4897 4.07675L18.1362 3.53319L17.3241 0.99654C17.1437 0.452973 16.6023 0 15.9707 0H12.9029C12.2713 0 11.7299 0.452973 11.6397 1.08713L10.8276 3.62378C10.2862 3.71438 9.83506 3.89557 9.38391 4.16735L7.03793 2.89903C6.49655 2.62724 5.77471 2.71784 5.32356 3.17081L3.15805 5.34508C2.7069 5.79805 2.61667 6.52281 2.88736 7.06637L4.06035 9.33124C3.87989 9.78421 3.69943 10.3278 3.51897 10.7808L0.992529 11.5961C0.451149 11.7773 0 12.3209 0 12.955V16.0352C0 16.6694 0.45115 17.213 1.08276 17.3942L3.6092 18.2095L4.15057 19.5684L2.88736 21.9239C2.61667 22.4674 2.7069 23.1922 3.15805 23.6452L5.32356 25.8194C5.77471 26.2724 6.49655 26.363 7.03793 26.0912L9.38391 24.8229L10.7374 25.3665L11.5494 27.9937C11.7299 28.5373 12.2713 28.9903 12.9029 28.9903H15.9707C16.6023 28.9903 17.1437 28.5373 17.3241 27.9937L18.1362 25.3665L19.4897 24.8229L21.8356 26.0912C22.377 26.363 23.0989 26.2724 23.55 25.8194L25.7155 23.6452C26.1667 23.1922 26.2569 22.4674 25.9862 21.9239L24.723 19.5684L25.2644 18.2095L27.881 17.3942C28.4224 17.213 28.8736 16.6694 28.8736 16.0352V12.955C28.8736 12.3209 28.4224 11.6867 27.7908 11.5055V11.5055ZM27.069 15.7634L23.8207 16.76L23.7305 17.213L22.9184 19.1154L22.6477 19.5684L24.2718 22.558L22.4672 24.3699L19.4897 22.7392L19.0385 23.011C18.4069 23.3734 17.7753 23.6452 17.1437 23.8264L16.6925 23.917L15.7 27.1784H13.1736L12.181 23.917L11.7299 23.8264L9.83506 23.011L9.38391 22.7392L6.40632 24.3699L4.60172 22.558L6.22586 19.5684L5.95517 19.1154C5.59425 18.4813 5.32356 17.8471 5.1431 17.213L5.05287 16.76L1.8046 15.7634V13.2268L4.87241 12.3209L5.05287 11.8679C5.23333 11.1431 5.50402 10.509 5.86494 9.8748L6.13563 9.42183L4.60172 6.43221L6.40632 4.62032L9.29368 6.25102L9.74483 5.97924C10.3764 5.61686 11.008 5.34508 11.7299 5.16389L12.181 4.9827L13.1736 1.81189H15.7L16.6925 4.9827L17.1437 5.16389C17.7753 5.34508 18.4069 5.61686 19.0385 5.97924L19.4897 6.25102L22.4672 4.62032L24.2718 6.43221L22.6477 9.42183L22.9184 9.8748C23.2793 10.509 23.55 11.1431 23.7305 11.7773L23.8207 12.2303L27.069 13.2268V15.7634V15.7634Z" fill="#000"/>
</svg>
